<?xml version="1.0" standalone="no"?>
<!DOCTYPE svg PUBLIC "-//W3C//DTD SVG 20010904//EN"
 "http://www.w3.org/TR/2001/REC-SVG-20010904/DTD/svg10.dtd">
<svg version="1.0" xmlns="http://www.w3.org/2000/svg"
 width="104.000000pt" height="104.000000pt" viewBox="0 0 104.000000 104.000000"
 preserveAspectRatio="xMidYMid meet">

<g transform="translate(0.000000,104.000000) scale(0.100000,-0.100000)"
fill="#000000" stroke="none">
<path d="M420 1000 c-146 -35 -285 -157 -340 -300 -27 -67 -37 -196 -21 -269
46 -214 252 -381 471 -381 215 0 422 163 469 370 59 256 -105 521 -359 579
-53 12 -170 13 -220 1z m250 -50 c176 -51 303 -226 304 -420 0 -128 -44 -229
-142 -322 -260 -248 -687 -95 -743 266 -13 83 0 159 45 251 65 134 180 219
329 244 64 11 122 5 207 -19z"/>
<path d="M540 918 c0 -8 13 -34 28 -59 15 -24 55 -92 87 -151 33 -59 64 -106
69 -105 11 4 105 168 106 185 0 21 -119 101 -174 116 -93 26 -116 29 -116 14z"/>
<path d="M391 900 c-63 -23 -153 -90 -183 -137 l-20 -33 192 0 192 0 -33 58
c-18 31 -42 74 -53 94 -12 21 -25 38 -31 38 -5 -1 -34 -10 -64 -20z"/>
<path d="M805 613 c-33 -59 -75 -133 -93 -165 l-34 -58 111 0 111 0 12 28 c20
47 14 190 -9 247 -11 27 -24 50 -29 52 -5 1 -36 -46 -69 -104z"/>
<path d="M162 662 c-22 -14 -34 -126 -22 -195 15 -78 42 -134 57 -115 20 25
173 296 173 307 0 13 -188 15 -208 3z"/>
<path d="M281 371 c-29 -50 -49 -95 -45 -104 9 -23 113 -93 167 -111 26 -9 65
-16 87 -16 l38 0 -52 88 c-29 48 -70 120 -92 159 -21 40 -42 73 -46 73 -3 0
-29 -40 -57 -89z"/>
<path d="M508 298 c99 -168 92 -158 120 -151 95 23 188 91 236 171 6 9 -34 12
-184 12 l-192 0 20 -32z"/>
</g>
</svg>
